<svg xmlns="http://www.w3.org/2000/svg" width="20" height="20" fill="none" xmlns:v="https://vecta.io/nano"><path d="M3.333 9.771c0-.316.235-.578.54-.619l.085-.006 10.987.001-3.969-3.953c-.245-.244-.245-.639-.002-.884.221-.222.569-.243.814-.062l.07.06 5.042 5.02a.62.62 0 0 1 .084.104l.02.034.016.031.02.047.013.036.013.047.007.033.007.05.003.039v.024.024l-.003.037.003-.061c0 .039-.004.078-.011.115l-.006.027-.015.055-.01.028-.024.054-.013.025-.024.04-.02.028-.005.007c-.017.022-.035.043-.055.062v.001l-5.042 5.021c-.245.244-.64.243-.884-.002-.221-.222-.241-.57-.059-.814l.061-.07 3.968-3.952-10.985-.001c-.345 0-.625-.28-.625-.625z" fill="#fff"/></svg>