<svg xmlns="http://www.w3.org/2000/svg" width="145" height="28" fill="#a7aab4" xmlns:v="https://vecta.io/nano"><path d="M11.975 22.743c.571 0 1.112-.053 1.622-.172.517-.119.976-.305 1.363-.582.387-.265.707-.63.941-1.094.233-.459.345-1.055.345-1.777 0-1.412-.381-2.416-1.138-3.024-.759-.601-1.772-.899-3.017-.899H5.802v7.547h6.174zm-.319-11.666c1.025 0 1.873-.254 2.545-.769.665-.506.989-1.344.989-2.493 0-.637-.108-1.165-.323-1.574-.223-.409-.518-.73-.891-.953a3.5 3.5 0 0 0-1.274-.481c-.476-.098-.976-.135-1.488-.135H5.802v6.405h5.854zM12.404.003c1.256 0 2.39.113 3.427.348 1.031.228 1.911.609 2.654 1.131.732.521 1.305 1.216 1.715 2.09.4.862.602 1.94.602 3.216 0 1.38-.3 2.532-.901 3.453s-1.494 1.675-2.681 2.261c1.617.485 2.814 1.339 3.609 2.553.798 1.222 1.188 2.685 1.188 4.399 0 1.39-.255 2.586-.764 3.593-.515 1.019-1.215 1.845-2.078 2.482-.87.643-1.87 1.115-2.989 1.422a12.82 12.82 0 0 1-3.434.461H.017V.003h12.387zm23.864 12.222c-.621-.717-1.673-1.105-2.956-1.105-.835 0-1.526.147-2.079.445-.541.295-.985.662-1.323 1.094a3.96 3.96 0 0 0-.701 1.398c-.134.483-.213.921-.239 1.308h8.503c-.125-1.39-.581-2.418-1.204-3.14zm-6.004 10.426c.782.797 1.913 1.199 3.379 1.199 1.053 0 1.964-.278 2.729-.833.757-.553 1.218-1.145 1.397-1.759h4.601c-.739 2.388-1.862 4.094-3.393 5.12-1.513 1.031-3.358 1.546-5.508 1.546-1.499 0-2.847-.254-4.058-.751-1.21-.505-2.222-1.212-3.073-2.135-.829-.926-1.473-2.021-1.931-3.306-.454-1.279-.684-2.695-.684-4.231 0-1.484.239-2.87.702-4.151.475-1.285 1.13-2.395 1.992-3.325.865-.936 1.89-1.673 3.083-2.213s2.51-.808 3.968-.808c1.609 0 3.019.323 4.227.981a8.53 8.53 0 0 1 2.967 2.629c.775 1.1 1.327 2.357 1.672 3.766a14.66 14.66 0 0 1 .363 4.419H28.97c0 1.568.509 3.053 1.294 3.851zM50.121.003v10.334h.12c.663-1.15 1.503-1.986 2.534-2.504s2.034-.781 3.013-.781c1.396 0 2.539.192 3.432.586.894.402 1.601.945 2.119 1.652.508.704.867 1.562 1.078 2.574s.313 2.123.313 3.351V27.41h-5.251V16.205c0-1.634-.244-2.862-.731-3.665s-1.354-1.208-2.603-1.208c-1.413 0-2.434.447-3.067 1.328-.645.881-.957 2.332-.957 4.351v10.4h-5.249V.003h5.249zm26.624 18.188c-.325.112-.685.207-1.057.289l-1.198.192-1.244.188c-.391.08-.782.18-1.154.31-.379.129-.711.301-.985.517-.283.22-.509.494-.681.824s-.257.761-.257 1.269c0 .485.09.894.257 1.23.173.333.398.593.694.786s.642.328 1.027.403a5.94 5.94 0 0 0 1.209.111c1.028 0 1.82-.178 2.385-.535s.985-.788 1.249-1.287a4.06 4.06 0 0 0 .485-1.511 9.57 9.57 0 0 0 .1-1.232v-2.039c-.226.209-.493.37-.829.485zM66.46 10.469a6.29 6.29 0 0 1 2.051-2.039c.834-.516 1.766-.879 2.814-1.097a14.91 14.91 0 0 1 3.147-.329 20.53 20.53 0 0 1 2.909.21c.977.14 1.87.416 2.68.827s1.469.978 1.979 1.716c.518.719.78 1.693.78 2.9V23a23 23 0 0 0 .144 2.572c.104.825.372 1.445.626 1.85l-5.338-.014c-.157-.237-.286-.609-.347-.933a8.13 8.13 0 0 1-.129-.976c-.831.897-1.806 1.528-2.941 1.888-1.126.355-2.275.535-3.454.535-.904 0-1.746-.12-2.534-.351-.776-.231-1.466-.589-2.053-1.073a5.03 5.03 0 0 1-1.376-1.846c-.329-.745-.499-1.632-.499-2.656 0-1.13.195-2.061.579-2.789.374-.729.86-1.314 1.468-1.748.598-.437 1.284-.766 2.061-.98.77-.216 1.552-.395 2.328-.521l2.319-.307c.767-.078 1.432-.189 2.025-.345.586-.152 1.055-.383 1.399-.675.338-.293.501-.72.478-1.288 0-.587-.1-1.055-.28-1.405-.181-.344-.427-.61-.727-.803-.308-.194-.655-.32-1.056-.388-.407-.061-.838-.096-1.298-.096-1.023 0-1.832.237-2.405.693-.59.469-.929 1.242-1.034 2.32h-5.242c.076-1.287.379-2.35.928-3.194zm24.197-2.898v2.766h.117c.662-1.15 1.515-1.986 2.574-2.504a7.23 7.23 0 0 1 3.243-.781c1.402 0 2.552.192 3.441.586.905.402 1.609.945 2.119 1.652.522.704.882 1.562 1.091 2.574s.316 2.123.316 3.351V27.41h-5.252V16.205c0-1.634-.246-2.862-.736-3.665-.497-.805-1.354-1.321-2.612-1.321-1.422 0-2.457.559-3.094 1.44s-.958 2.332-.958 4.351v10.4H85.71V7.571h4.949zm24.528 3.549c-.84 0-1.534.194-2.092.595a4.64 4.64 0 0 0-1.389 1.538c-.357.625-.603 1.318-.756 2.075a12.19 12.19 0 0 0-.222 2.251c0 .72.08 1.45.222 2.195.153.741.387 1.41.719 2.02.336.597.783 1.089 1.348 1.477s1.245.579 2.056.579c1.258 0 2.222-.366 2.897-1.092s1.089-1.71 1.264-2.938h5.047c-.347 2.632-1.328 4.643-2.944 6.029-1.621 1.377-3.697 2.075-6.225 2.075-1.429 0-2.727-.254-3.924-.751-1.195-.505-2.21-1.2-3.046-2.097s-1.485-1.968-1.96-3.211c-.464-1.245-.697-2.611-.697-4.094 0-1.536.216-2.967.646-4.29s1.061-2.459 1.904-3.417c.835-.964 1.857-1.713 3.065-2.252s2.578-.808 4.122-.808c1.129 0 2.213.159 3.261.457a8.44 8.44 0 0 1 2.795 1.403 7.5 7.5 0 0 1 2.011 2.334c.51.929.801 2.043.882 3.316h-5.124c-.339-2.265-1.627-3.395-3.86-3.395zM27.902 1.842h10.65v2.705h-10.65V1.842zm110.303 10.383c-.63-.717-1.69-1.105-2.957-1.105-.834 0-1.527.147-2.09.445-.542.295-1.036.662-1.369 1.094a4.18 4.18 0 0 0-.709 1.398c-.124.483-.211.921-.234 1.308h8.567c-.14-1.39-.585-2.418-1.208-3.14zm-6.069 10.426c.785.797 1.97 1.199 3.447 1.199 1.051 0 1.96-.278 2.719-.833s1.23-1.145 1.398-1.759h4.601c-.735 2.388-1.864 4.094-3.386 5.12s-3.356 1.546-5.514 1.546c-1.503 0-2.856-.254-4.058-.751a8.58 8.58 0 0 1-3.068-2.135c-.838-.926-1.48-2.021-1.937-3.306-.454-1.279-.68-2.695-.68-4.231 0-1.484.234-2.87.699-4.151.471-1.285 1.14-2.395 1.997-3.325.869-.936 1.885-1.673 3.075-2.213s2.522-.808 3.972-.808c1.607 0 3.023.323 4.219.981 1.207.648 2.199 1.528 2.969 2.629.776 1.1 1.333 2.357 1.676 3.766a14.89 14.89 0 0 1 .37 4.419h-13.789c0 1.568.502 3.053 1.29 3.851z"/></svg>