<svg xmlns="http://www.w3.org/2000/svg" width="118" height="28" fill="none" xmlns:v="https://vecta.io/nano"><path d="M35.775 11.183c1.34 0 2.426-1.056 2.426-2.358s-1.086-2.358-2.426-2.358-2.427 1.056-2.427 2.358 1.086 2.358 2.427 2.358zm80.08 8.058c-.37-.252-.655-.294-.891.196-4.075 8.577-10.943 4.297-10.261 4.674 1.524-.677 5.53-3.799 4.925-8.11-.368-2.635-2.695-3.803-5.166-3.385-4.311.73-5.898 5.249-5.09 9.25.141.687.394 1.254.646 1.809-4.872 3.85-6.807-3.447-7.027-4.319-.009-.046 3.762-3.101 4.811-10.379C98.901 1.349 96.397-.04 93.836.003c-4.738.08-6.019 9.7-4.299 17.718-.144.036-.814.397-1.892.438-.775-2.37-4.088-4.448-4.955-3.647-2.17 2.003.526 5.919 2.423 6.226-1.139 6.82-8.266 5.131-6.94-3.414 2.321-4.188 4.086-10.414 3.771-14.174-.112-1.331-1.124-3.114-3.415-3.026-4.405.169-4.883 9.792-4.367 16.622-.026-.168-.271.83-2.076 1.326-.427-2.303-4.243-4.615-5.142-3.503-1.681 2.08 1.233 5.789 2.613 6.047-1.139 6.82-8.266 5.131-6.939-3.414 2.321-4.188 4.086-10.414 3.771-14.174-.111-1.331-1.124-3.114-3.414-3.026-4.405.17-4.884 9.792-4.367 16.622-.026-.171-.277.86-2.155 1.348-.063-2.988-3.893-4.358-4.813-3.404-1.64 1.699.375 5.186 2.24 6.047-1.139 6.82-8.266 5.131-6.939-3.414 2.321-4.188 4.086-10.414 3.771-14.174C50.6 1.698 49.588-.085 47.297.003c-4.405.17-4.759 10.276-4.242 17.106-1.451 6.04-6.316 13.583-5.684-1.527.062-1.06.131-1.463-.413-1.859-.408-.309-1.334-.16-1.841-.148-.616.024-.77.374-.906.903-.317 1.366-.374 2.691-.419 4.498-.03.845-.1 1.24-.434 2.392s-2.244 3.259-3.289 2.907c-1.45-.485-.974-4.462-.703-7.194.226-2.16-.498-3.129-2.356-3.482-1.087-.22-1.748-.186-2.881-.533-1.071-.328-1.313-2.297-3.597-1.64-1.25.359-.446 2.931-.747 4.838-1.476 9.378-4.548 9.635-5.973 5.08C20.23 6.069 15.669.048 12.999.048c-2.781 0-5.96 1.861-4.614 13.771-.655-.186-.856-.285-1.572-.285-4.052 0-6.813 3.183-6.813 7.11s2.761 7.11 6.813 7.11c2.392 0 4.072-1.057 5.344-2.693.83 1.155 1.841 2.71 3.688 2.64 5.509-.208 7.111-11.188 7.3-11.801.589.088 1.146.255 1.69.343.906.132.972.481.951 1.366-.24 7.467 1.178 10.082 4.395 10.082 1.792 0 3.39-1.711 4.49-2.934.822 1.648 2.132 2.884 3.889 2.935 4.258.103 5.888-6.491 5.739-5.623-.117.681 1.381 5.586 5.764 5.604 5.429.022 6.439-5.78 6.559-6.751.015-.194.022-.173 0 0l-.004.059c1.724-.311 2.613-1.209 2.613-1.209s1.384 7.992 6.511 7.902c5.324-.094 6.328-5.338 6.46-6.361.017-.243.028-.214 0 0l-.002.03c2.047-.724 2.586-1.45 2.586-1.45s1.1 7.833 6.511 7.902c4.822.061 6.609-4.737 6.619-6.745.813.008 2.318-.469 2.282-.496 0 0 1.766 6.849 6.698 7.201 2.316.165 4.053-1.266 5.043-1.919 2.327 1.831 10.077 4.17 14.969-3.891.691-1.157-.794-2.524-1.054-2.702zM6.618 25.093c-2.364 0-3.88-2.124-3.88-4.415s1.392-4.414 3.756-4.414c1.064 0 1.656.114 2.484.814.15.575.576 1.902.783 2.505.277.806.608 1.493.941 2.24-.476 1.916-2.035 3.27-4.084 3.27zm5.761-7.948c-.098-.152-.078-.059-.188-.202-.433-1.146-1.269-3.703-1.365-6.607-.109-3.285.454-7.136 2.116-7.136 1.126 0 2.322 7.804-.562 13.945zm33.289-3.423c-.267-1.95-.281-10.641 1.867-10.401 1.186.467-.752 8.668-1.867 10.401zm15.679 0c-.267-1.95-.281-10.641 1.867-10.401 1.185.467-.752 8.668-1.867 10.401zm15.555.121c-.267-1.95-.281-10.641 1.866-10.401 1.186.467-.752 8.668-1.866 10.401zM94.073 2.812c1.963-.198 1.882 8.133-2.058 13.392-.508-1.901-1.287-12.739 2.058-13.392zm8.252 17.925c-.631-3.095.998-5.128 2.678-5.35.587-.091 1.438.278 1.607.969.279 1.302-.04 3.233-3.799 5.684a4.91 4.91 0 0 1-.486-1.302z" fill="#a7aab4"/></svg>