<svg xmlns="http://www.w3.org/2000/svg" width="38" height="26" fill="none" xmlns:v="https://vecta.io/nano"><g fill="#fff"><path d="M.066 25V.938h9.625v4.689H4.906v3.828h4.539v4.635H4.906V25H.066z"/><path d="M17.412 25.219c-1.923 0-3.395-.579-4.416-1.736-1.012-1.167-1.518-2.848-1.518-5.045V7.008c0-2.06.501-3.623 1.504-4.689 1.012-1.066 2.488-1.6 4.43-1.6s3.413.533 4.416 1.6c1.012 1.066 1.518 2.63 1.518 4.689v11.43c0 2.197-.51 3.878-1.531 5.045-1.012 1.158-2.479 1.736-4.402 1.736zm.041-4.43c.729 0 1.094-.706 1.094-2.119V6.926c0-1.185-.355-1.777-1.067-1.777-.802 0-1.203.606-1.203 1.818v11.731c0 .747.091 1.285.273 1.613.182.319.483.479.902.479z" fill-opacity=".52"/></g><path d="M25.01 25l2.584-12.756L25.543.924h4.703l1.244 8.271L32.598.924h4.717l-2.051 11.32L37.834 25h-4.867l-1.518-9.406L29.891 25H25.01z" fill="url(#A)"/><defs><linearGradient id="A" x1="19" y1="-8" x2="19" y2="32" gradientUnits="userSpaceOnUse"><stop stop-color="#fe390c"/><stop offset="1" stop-color="#521b0e"/></linearGradient></defs></svg>