<svg xmlns="http://www.w3.org/2000/svg" width="105" height="28" fill="none" xmlns:v="https://vecta.io/nano"><path d="M20.079 11.948h-8.76c-.226 0-.409.182-.409.406v4.241c0 .224.184.406.409.406h3.417v5.269s-.767.259-2.889.259c-2.503 0-5.999-.905-5.999-8.518s3.641-8.616 7.059-8.616c2.959 0 4.233.516 5.044.764.255.077.49-.174.49-.398l.977-4.098c0-.105-.036-.231-.157-.317C18.933 1.113 16.923 0 11.847 0 5.999 0 0 2.464 0 14.307s6.868 13.608 12.656 13.608c4.792 0 7.699-2.028 7.699-2.028.12-.066.133-.231.133-.307V12.353c0-.224-.183-.406-.409-.406zM65.201 1.482c0-.226-.181-.408-.407-.408h-4.933a.41.41 0 0 0-.408.408l.001 9.439h-7.689V1.482c0-.226-.181-.408-.407-.408h-4.932c-.224 0-.407.182-.407.408v25.557a.41.41 0 0 0 .407.409h4.932c.225 0 .407-.184.407-.409V16.108h7.689l-.014 10.932a.41.41 0 0 0 .408.409h4.944c.226 0 .407-.184.407-.409V1.482zm-35.83 3.417a3.18 3.18 0 1 0-6.361 0c0 1.757 1.425 3.182 3.18 3.182a3.18 3.18 0 0 0 3.181-3.182zm-.391 16.762V9.864a.41.41 0 0 0-.408-.407h-4.917c-.226 0-.427.23-.427.454v16.902c0 .497.313.644.717.644h4.43c.486 0 .605-.236.605-.652v-5.144zM84.053 9.457h-4.895a.41.41 0 0 0-.407.409v12.531s-1.243.901-3.008.901-2.233-.793-2.233-2.504V9.866a.41.41 0 0 0-.407-.409h-4.968a.41.41 0 0 0-.408.409v11.756c0 5.083 2.861 6.326 6.796 6.326 3.229 0 5.832-1.766 5.832-1.766s.124.931.18 1.041.202.221.36.221l3.16-.014a.41.41 0 0 0 .408-.408l-.001-17.156a.41.41 0 0 0-.409-.409zm11.278 13.85c-1.698-.051-2.849-.814-2.849-.814v-8.093s1.136-.689 2.53-.813c1.763-.156 3.461.371 3.461 4.534 0 4.39-.766 5.257-3.142 5.186zm1.931-14.399c-2.78 0-4.671 1.228-4.671 1.228V1.482c0-.226-.182-.408-.407-.408h-4.946c-.225 0-.408.182-.408.408v25.557a.41.41 0 0 0 .408.409h3.432c.154 0 .272-.079.358-.217s.208-1.178.208-1.178 2.023 1.898 5.852 1.898c4.495 0 7.073-2.258 7.073-10.135s-4.117-8.907-6.899-8.907zm-54.085.505h-3.7l-.006-4.84c0-.183-.095-.275-.309-.275h-5.042c-.196 0-.301.085-.301.272v5.002l-2.698.653c-.17.049-.295.204-.295.389v3.143c0 .226.182.408.408.408h2.585v7.561c0 5.616 3.978 6.168 6.663 6.168 1.227 0 2.694-.39 2.936-.479.146-.053.232-.204.232-.366l.004-3.457c0-.226-.192-.408-.409-.408s-.767.087-1.335.087c-1.817 0-2.433-.837-2.433-1.92v-7.185h3.7c.225 0 .408-.182.408-.408V9.821c0-.225-.183-.407-.408-.407z" fill="#a7aab4"/></svg>