<svg xmlns="http://www.w3.org/2000/svg" width="42" height="42" fill="#fff" xmlns:v="https://vecta.io/nano"><circle cx="21" cy="21" r="21" fill-opacity=".1"/><path d="M29.283 16.515a9.27 9.27 0 0 0-3.398-3.397c-1.431-.834-2.992-1.251-4.684-1.251s-3.254.417-4.685 1.251-2.564 1.967-3.397 3.397-1.251 2.993-1.251 4.685.416 3.255 1.251 4.685c.814 1.412 1.986 2.584 3.398 3.397 1.431.834 2.992 1.251 4.684 1.251s3.254-.417 4.685-1.251a9.27 9.27 0 0 0 3.398-3.397c.834-1.431 1.25-2.993 1.25-4.685s-.416-3.254-1.251-4.685zM21.2 13.416a7.57 7.57 0 0 1 4.965 1.791c-.859 1.096-2.134 1.997-3.827 2.707-.935-1.692-1.949-3.105-3.044-4.237.62-.171 1.261-.259 1.905-.26zm-6.057 2.931c.683-.867 1.546-1.574 2.53-2.072 1.131 1.121 2.17 2.52 3.117 4.2-1.867.56-3.84.84-5.918.84-.535 0-.939-.012-1.213-.037a7.98 7.98 0 0 1 1.484-2.931zM13.416 21.2a2.18 2.18 0 0 1 .009-.187l.009-.187 1.084.019c2.488 0 4.803-.343 6.943-1.027l.541 1.176c-1.232.273-2.496.939-3.79 1.997s-2.239 2.172-2.836 3.341c-1.307-1.481-1.96-3.192-1.96-5.133zm7.784 7.784c-1.768 0-3.354-.548-4.761-1.642.561-1.108 1.422-2.167 2.586-3.174s2.317-1.636 3.463-1.885a27.48 27.48 0 0 1 1.456 6.179c-.875.342-1.805.519-2.744.523zm6.608-3.696c-.611.984-1.433 1.82-2.408 2.446a26.86 26.86 0 0 0-1.287-5.676l2.333-.093 2.482.093a7.56 7.56 0 0 1-1.12 3.229zm-1.157-4.667l-3.005.131-.635-1.512c1.928-.846 3.297-1.872 4.106-3.08a7.49 7.49 0 0 1 1.829 4.517l-2.295-.056z"/></svg>