<svg xmlns="http://www.w3.org/2000/svg" width="42" height="42" fill="#fff" xmlns:v="https://vecta.io/nano"><circle cx="21" cy="21" r="21" fill-opacity=".1"/><path d="M21.199 16.885a4.32 4.32 0 0 0-3.052 1.264c-.81.809-1.264 1.907-1.264 3.052a4.32 4.32 0 0 0 1.264 3.052c.809.81 1.907 1.264 3.052 1.264a4.32 4.32 0 0 0 3.052-1.264c.81-.809 1.264-1.907 1.264-3.052a4.32 4.32 0 0 0-1.264-3.052c-.809-.81-1.907-1.264-3.052-1.264zm0 7.118c-.744 0-1.457-.295-1.983-.821s-.821-1.239-.821-1.983.295-1.457.821-1.983 1.239-.821 1.983-.821a2.8 2.8 0 0 1 1.982.821 2.81 2.81 0 0 1 .821 1.983c0 .744-.295 1.457-.821 1.983s-1.239.821-1.982.821zm4.487-6.27c.556 0 1.006-.45 1.006-1.006s-.45-1.006-1.006-1.006-1.006.45-1.006 1.006.45 1.006 1.006 1.006zm3.478-2.029a4.3 4.3 0 0 0-2.457-2.457 6.16 6.16 0 0 0-2.04-.392l-3.463-.05-3.463.05a6.12 6.12 0 0 0-2.038.392 4.3 4.3 0 0 0-2.457 2.457c-.245.653-.378 1.343-.391 2.04l-.052 3.463.052 3.463c.014.698.146 1.387.391 2.041a4.3 4.3 0 0 0 2.458 2.457c.651.255 1.341.397 2.039.42l3.463.051 3.463-.051a6.16 6.16 0 0 0 2.04-.391 4.3 4.3 0 0 0 1.488-.97c.423-.423.753-.93.97-1.488.245-.653.377-1.342.391-2.04l.052-3.463-.052-3.463a6.14 6.14 0 0 0-.393-2.069zM28.027 24.6a4.7 4.7 0 0 1-.29 1.575 2.79 2.79 0 0 1-1.598 1.597 4.65 4.65 0 0 1-1.559.29l-3.41.051c-2.276 0-2.508 0-3.411-.051a4.63 4.63 0 0 1-1.558-.29c-.364-.139-.695-.353-.972-.628a2.78 2.78 0 0 1-.633-.969 4.74 4.74 0 0 1-.29-1.558l-.05-3.41.05-3.411c.006-.538.104-1.07.29-1.575a2.79 2.79 0 0 1 1.604-1.598 4.66 4.66 0 0 1 1.558-.29l3.411-.051 3.41.051a4.63 4.63 0 0 1 1.559.29 2.79 2.79 0 0 1 1.598 1.598 4.74 4.74 0 0 1 .29 1.558l.05 3.411-.04 3.41h-.01 0z"/></svg>