<svg xmlns="http://www.w3.org/2000/svg" width="24" height="25" fill="none" xmlns:v="https://vecta.io/nano"><path d="M16.939 3.715c1.341 0 2.631.53 3.58 1.481S22 7.425 22 8.765v7.9a5.06 5.06 0 0 1-5.061 5.05H7.06c-2.791 0-5.06-2.26-5.06-5.05v-7.9a5.05 5.05 0 0 1 5.06-5.05h9.879zm1.131 5.2a.76.76 0 0 0-.561.2L13 12.715c-.58.481-1.411.481-2 0l-4.5-3.6c-.311-.23-.741-.2-1 .07-.27.27-.3.7-.071 1l.131.13 4.55 3.55c.56.44 1.239.68 1.95.68a3.17 3.17 0 0 0 1.959-.68l4.511-3.61.08-.08c.239-.29.239-.71-.011-1a.84.84 0 0 0-.529-.26z" fill="#fe390c"/></svg>