<svg xmlns="http://www.w3.org/2000/svg" width="114" height="28" fill="#a7aab4" xmlns:v="https://vecta.io/nano"><path d="M36.175 21.945l1.412-3.195c1.526 1.109 3.554 1.686 5.558 1.686 1.481 0 2.415-.555 2.415-1.398-.023-2.352-8.861-.51-8.93-6.413-.023-2.995 2.711-5.303 6.584-5.303 2.301 0 4.602.555 6.242 1.819l-1.321 3.262c-1.504-.932-3.372-1.598-5.148-1.598-1.207 0-2.005.555-2.005 1.265.023 2.308 8.93 1.043 9.021 6.679 0 3.062-2.665 5.214-6.492 5.214-2.802 0-5.376-.643-7.335-2.019zm54.194-4.349l3.895 2.108c-1.458 2.552-4.237 4.26-7.449 4.26-4.716 0-8.543-3.728-8.543-8.321s3.827-8.321 8.543-8.321c3.189 0 5.991 1.731 7.449 4.26l-3.895 2.108a4.12 4.12 0 0 0-3.554-2.019c-2.255 0-4.078 1.775-4.078 3.972s1.822 3.972 4.078 3.972a4.12 4.12 0 0 0 3.554-2.019zM51.962.422h4.875v23.231h-4.875V.422zm44.216 0h4.875v13.646l5.513-6.413h5.968l-6.811 7.722 7.358 8.276h-6.242l-5.786-6.967v6.967h-4.875V.422zM71.325 17.64v-3.927c-.706-1.154-2.164-2.041-3.804-2.041-2.255 0-4.078 1.775-4.078 3.972s1.822 3.972 4.078 3.972c1.64 0 3.098-.843 3.804-1.975zm0-9.985H76.2v15.976h-4.875v-1.886c-.797 1.309-2.779 2.219-4.852 2.219-4.283 0-7.654-3.728-7.654-8.343s3.371-8.299 7.654-8.299c2.073 0 4.055.91 4.852 2.219V7.655zM6.037 17.618c0 1.62-1.344 2.929-3.007 2.929S.023 19.238.023 17.618s1.344-2.929 3.007-2.929h3.007v2.929zm1.503 0c0-1.62 1.344-2.929 3.007-2.929s3.007 1.309 3.007 2.929v7.322c0 1.62-1.344 2.929-3.007 2.929S7.54 26.56 7.54 24.94v-7.322zm3.007-11.76c-1.663 0-3.007-1.309-3.007-2.929S8.884 0 10.547 0s3.007 1.309 3.007 2.929v2.929h-3.007zm0 1.487c1.663 0 3.007 1.309 3.007 2.929s-1.344 2.929-3.007 2.929h-7.54C1.344 13.202 0 11.893 0 10.273s1.344-2.929 3.007-2.929h7.54zm12.051 2.928c0-1.62 1.344-2.929 3.007-2.929s3.007 1.309 3.007 2.929-1.344 2.929-3.007 2.929h-3.007v-2.929zm-1.503 0c0 1.62-1.344 2.929-3.007 2.929s-3.007-1.309-3.007-2.929V2.929c0-1.62 1.344-2.929 3.007-2.929s3.007 1.309 3.007 2.929v7.344zm-3.007 11.738c1.663 0 3.007 1.309 3.007 2.929s-1.344 2.929-3.007 2.929-3.007-1.309-3.007-2.929v-2.929h3.007zm0-1.464c-1.663 0-3.007-1.309-3.007-2.929s1.344-2.929 3.007-2.929h7.54c1.663 0 3.007 1.309 3.007 2.929s-1.344 2.929-3.007 2.929h-7.54z"/></svg>