<svg xmlns="http://www.w3.org/2000/svg" width="93" height="28" fill="none" xmlns:v="https://vecta.io/nano"><path d="M13.989 0c7.722 0 13.989 6.233 13.989 13.913s-6.267 13.913-13.989 13.913S0 21.592 0 13.913 6.267 0 13.989 0zm0 3.673c-5.708 0-10.296 4.563-10.296 10.24s4.588 10.24 10.296 10.24 10.296-4.563 10.296-10.24-4.588-10.24-10.296-10.24zm71.904 5.732c4.141 0 7.106 3.005 7.106 6.567v.056c0 3.562-2.966 6.622-7.162 6.622-4.141 0-7.107-3.005-7.107-6.567v-.056c0-3.562 2.966-6.622 7.163-6.622zM37.715 5.509c.168-.056.336.111.336.223v4.007h7.442c.168 0 .28.111.336.223l.616 2.282.56 2.282.056.111.056-.223 1.399-4.619c.056-.111.224-.223.336-.223h3.693c.168 0 .28.111.336.223l1.455 4.953.056-.223 1.231-4.619c.056-.111.224-.223.336-.223h9.513c.112 0 .224.111.224.278v12.132c0 .111-.112.223-.224.223h-4.756c-.112 0-.224-.111-.224-.223V10.407l-3.581 11.687c-.056.111-.224.223-.336.223h-3.917c-.168 0-.28-.111-.336-.223l-.783-2.449-.839-2.671-1.679 5.175c-.056.111-.224.223-.336.223h-3.917c-.168 0-.28-.111-.336-.223l-3.525-11.631v3.005c0 .111-.112.223-.224.223h-2.686v3.172c0 .946.448 1.28 1.287 1.28.448 0 .839-.056 1.343-.278.112 0 .28.056.28.223v3.673c-.839.445-2.07.723-3.357.723-3.078 0-4.756-1.447-4.756-4.508V13.69H31.56c-.112 0-.224-.111-.224-.223V9.906c0-.111.112-.223.224-.223h1.231V7.179c0-.111.056-.167.224-.223l4.7-1.447zm34.022-.056c.112 0 .224.111.224.223v16.417c0 .111-.112.223-.224.223H66.98c-.112 0-.224-.111-.224-.223V5.676c0-.111.112-.223.224-.223h4.756zm6.267 4.229c.112 0 .224.111.224.278v12.132c0 .111-.112.223-.224.223h-4.756c-.112 0-.224-.111-.224-.223V9.906c0-.111.112-.223.224-.223h4.756zm-60.545 4.786c1.607 0 2.91 1.296 2.91 2.894s-1.303 2.894-2.91 2.894-2.91-1.296-2.91-2.894 1.303-2.894 2.91-2.894zm-6.939 0c1.607 0 2.91 1.296 2.91 2.894s-1.303 2.894-2.91 2.894-2.91-1.296-2.91-2.894 1.303-2.894 2.91-2.894zm75.318-.723c-1.175 0-2.014.946-2.014 2.17v.056c0 1.224.895 2.226 2.07 2.226s2.014-.946 2.014-2.17c0-1.28-.895-2.282-2.07-2.282zM17.459 7.568c1.607 0 2.91 1.296 2.91 2.894s-1.303 2.894-2.91 2.894-2.91-1.296-2.91-2.894 1.303-2.894 2.91-2.894zm-6.939 0c1.607 0 2.91 1.296 2.91 2.894s-1.303 2.894-2.91 2.894-2.91-1.296-2.91-2.894 1.303-2.894 2.91-2.894zm55.005-2.115c.168 0 .28.111.224.223v2.838c0 .111-.112.223-.224.223h-4.924c-.112 0-.224-.111-.224-.223V5.676c0-.111.112-.223.224-.223h4.924zm12.534 0c.168 0 .28.111.224.223v2.838c0 .111-.112.223-.224.223h-4.924c-.112 0-.224-.111-.224-.223V5.676c0-.111.112-.223.224-.223h4.924z" fill="#a7aab4"/></svg>